<svg width="48" height="48" viewBox="0 0 48 48" fill="none" xmlns="http://www.w3.org/2000/svg">
<path d="M40 0C44.4183 0 48 3.58172 48 8V40C48 44.4183 44.4183 48 40 48H8C3.58172 48 0 44.4183 0 40V8C5.15405e-07 3.58172 3.58172 0 8 0H40Z" fill="#B9EBFF" fill-opacity="0.8"/>
<path d="M40 0C44.4183 0 48 3.58172 48 8V40C48 44.4183 44.4183 48 40 48H8C3.58172 48 0 44.4183 0 40V8C5.15405e-07 3.58172 3.58172 0 8 0H40Z" stroke="#E5E7EB"/>
<path d="M32.75 38H15.25V10H32.75V38Z" stroke="#E5E7EB"/>
<g clip-path="url(#clip0_247_2919)">
<path d="M28.8981 15.2422C29.1286 14.707 28.9567 14.082 28.484 13.7383C28.0114 13.3945 27.3669 13.4258 26.9254 13.8086L16.9254 22.5586C16.5348 22.9023 16.3942 23.4531 16.5778 23.9375C16.7614 24.4219 17.2301 24.75 17.7497 24.75H22.1051L19.1012 31.7578C18.8708 32.293 19.0426 32.918 19.5153 33.2617C19.9879 33.6055 20.6325 33.5742 21.0739 33.1914L31.0739 24.4414C31.4645 24.0976 31.6051 23.5469 31.4215 23.0625C31.2379 22.5781 30.7731 22.2539 30.2497 22.2539H25.8942L28.8981 15.2422Z" fill="#2563EB"/>
</g>
<defs>
<clipPath id="clip0_247_2919">
<path d="M15.25 13.5H32.75V33.5H15.25V13.5Z" fill="white"/>
</clipPath>
</defs>
</svg>
