<svg width="48" height="48" viewBox="0 0 48 48" fill="none" xmlns="http://www.w3.org/2000/svg">
<path d="M40 0C44.4183 0 48 3.58172 48 8V40C48 44.4183 44.4183 48 40 48H8C3.58172 48 0 44.4183 0 40V8C5.15405e-07 3.58172 3.58172 0 8 0H40Z" fill="#FEF9C3"/>
<path d="M40 0C44.4183 0 48 3.58172 48 8V40C48 44.4183 44.4183 48 40 48H8C3.58172 48 0 44.4183 0 40V8C5.15405e-07 3.58172 3.58172 0 8 0H40Z" stroke="#E5E7EB"/>
<path d="M32.75 38H15.25V10H32.75V38Z" stroke="#E5E7EB"/>
<g clip-path="url(#clip0_247_2952)">
<path d="M24.0002 13.5C23.3088 13.5 22.7502 14.0586 22.7502 14.75V15.5C19.8987 16.0781 17.7502 18.6016 17.7502 21.625V22.3594C17.7502 24.1953 17.0744 25.9688 15.8557 27.3438L15.5666 27.668C15.2385 28.0352 15.1604 28.5625 15.3596 29.0117C15.5588 29.4609 16.008 29.75 16.5002 29.75H31.5002C31.9924 29.75 32.4377 29.4609 32.6409 29.0117C32.844 28.5625 32.7619 28.0352 32.4338 27.668L32.1448 27.3438C30.926 25.9688 30.2502 24.1992 30.2502 22.3594V21.625C30.2502 18.6016 28.1018 16.0781 25.2502 15.5V14.75C25.2502 14.0586 24.6916 13.5 24.0002 13.5ZM25.7698 32.7695C26.2385 32.3008 26.5002 31.6641 26.5002 31H24.0002H21.5002C21.5002 31.6641 21.7619 32.3008 22.2307 32.7695C22.6994 33.2383 23.3362 33.5 24.0002 33.5C24.6643 33.5 25.301 33.2383 25.7698 32.7695Z" fill="#CA8A04"/>
</g>
<defs>
<clipPath id="clip0_247_2952">
<path d="M15.25 13.5H32.75V33.5H15.25V13.5Z" fill="white"/>
</clipPath>
</defs>
</svg>
