<svg width="48" height="48" viewBox="0 0 48 48" fill="none" xmlns="http://www.w3.org/2000/svg">
<path d="M40 0C44.4183 0 48 3.58172 48 8V40C48 44.4183 44.4183 48 40 48H8C3.58172 48 0 44.4183 0 40V8C5.15405e-07 3.58172 3.58172 0 8 0H40Z" fill="#F3E8FF"/>
<path d="M40 0C44.4183 0 48 3.58172 48 8V40C48 44.4183 44.4183 48 40 48H8C3.58172 48 0 44.4183 0 40V8C5.15405e-07 3.58172 3.58172 0 8 0H40Z" stroke="#E5E7EB"/>
<path d="M36.5 38H11.5V10H36.5V38Z" stroke="#E5E7EB"/>
<g clipPath="url(#clip0_247_2930)">
<path d="M23.9996 14.75C23.6832 14.75 23.3707 14.8047 23.0738 14.9102L12.1168 18.8672C11.7457 19.0039 11.4996 19.3555 11.4996 19.75C11.4996 20.1445 11.7457 20.4961 12.1168 20.6328L14.3785 21.4492C13.7379 22.457 13.3746 23.6484 13.3746 24.9023V26C13.3746 27.1094 12.9527 28.2539 12.5035 29.1562C12.2496 29.6641 11.9606 30.1641 11.6246 30.625C11.4996 30.793 11.4645 31.0117 11.5348 31.2109C11.6051 31.4102 11.7692 31.5586 11.9723 31.6094L14.4723 32.2344C14.6363 32.2773 14.8121 32.2461 14.9567 32.1562C15.1012 32.0664 15.2027 31.918 15.234 31.75C15.5699 30.0781 15.402 28.5781 15.152 27.5039C15.027 26.9492 14.859 26.3828 14.6246 25.8633V24.9023C14.6246 23.7227 15.0231 22.6094 15.7145 21.7188C16.2184 21.1133 16.8707 20.625 17.6363 20.3242L23.7692 17.9141C24.0895 17.7891 24.4527 17.9453 24.5777 18.2656C24.7027 18.5859 24.5465 18.9492 24.2262 19.0742L18.0934 21.4844C17.609 21.6758 17.1832 21.9688 16.8356 22.3281L23.0699 24.5781C23.3668 24.6836 23.6793 24.7383 23.9957 24.7383C24.3121 24.7383 24.6246 24.6836 24.9215 24.5781L35.8824 20.6328C36.2535 20.5 36.4996 20.1445 36.4996 19.75C36.4996 19.3555 36.2535 19.0039 35.8824 18.8672L24.9254 14.9102C24.6285 14.8047 24.316 14.75 23.9996 14.75ZM16.4996 29.4375C16.4996 30.8164 19.859 32.25 23.9996 32.25C28.1402 32.25 31.4996 30.8164 31.4996 29.4375L30.902 23.7578L25.3473 25.7656C24.9137 25.9219 24.4567 26 23.9996 26C23.5426 26 23.0817 25.9219 22.652 25.7656L17.0973 23.7578L16.4996 29.4375Z" fill="#9333EA"/>
</g>
<defs>
<clipPath id="clip0_247_2930">
<path d="M11.5 13.5H36.5V33.5H11.5V13.5Z" fill="white"/>
</clipPath>
</defs>
</svg>
