<svg width="29" height="25" viewBox="0 0 29 25" fill="none" xmlns="http://www.w3.org/2000/svg">
<path d="M11.069 0H0.919947C0.409087 0 0.000398365 0.432277 0.000398365 0.972622V11.7435C0.000398365 12.2839 0.409087 12.7161 0.919947 12.7161H4.46192V14.5173C4.46192 17.9755 2.96339 21.2176 0.37503 23.3429C0.340972 23.3069 0.340972 23.3429 0.306915 23.379C0.306915 23.379 0.306915 23.415 0.272857 23.415C-0.0336589 23.7392 -0.101774 24.2795 0.170685 24.6398C0.340972 24.8919 0.613431 25 0.88589 25C0.919948 25 0.954005 24.964 0.954005 24.964C0.988062 24.964 0.988062 25 1.02212 25C7.15245 24.2435 11.9545 18.4078 11.9545 11.7075V0.936599C11.9886 0.432276 11.5799 0 11.069 0ZM3.81482 22.1902C5.38146 19.9568 6.26696 17.2911 6.26696 14.4813V11.7435C6.26696 11.2032 5.85827 10.7709 5.34741 10.7709H1.80544V1.90922H10.1836V11.7075C10.1836 16.3184 7.52708 20.4251 3.81482 22.1902Z" fill="#FACC15"/>
<path d="M27.3438 0H17.2218C16.7123 0 16.3047 0.431655 16.3047 0.971223V11.7266C16.3047 12.2662 16.7123 12.6978 17.2218 12.6978H20.7543V14.4964C20.7543 17.9496 19.2598 21.187 16.6444 23.3094C16.6104 23.3453 16.6104 23.3813 16.6104 23.3813C16.6104 23.3813 16.6104 23.4173 16.5764 23.4173C16.2708 23.741 16.2028 24.2806 16.4745 24.6403C16.6444 24.8921 16.9161 25 17.1878 25C17.2218 25 17.2558 24.964 17.2558 24.964C17.2897 24.964 17.2897 25 17.3237 25C23.4716 24.2086 28.2608 18.3813 28.2608 11.6906V0.935252C28.2608 0.431654 27.8532 0 27.3438 0ZM20.1089 22.1583C21.6714 19.9281 22.5545 17.2662 22.5545 14.4604V11.7266C22.5545 11.1871 22.1469 10.7554 21.6374 10.7554H18.1049V1.90647H26.4606V11.6906C26.4606 16.295 23.8113 20.3957 20.1089 22.1583Z" fill="#FACC15"/>
</svg>
