<svg width="49" height="66" viewBox="0 0 49 66" fill="none" xmlns="http://www.w3.org/2000/svg">
<mask id="mask0_75_280" style="mask-type:alpha" maskUnits="userSpaceOnUse" x="0" y="0" width="48" height="66">
<path d="M30.0609 0.943848H5.2092C2.79712 0.943848 0.823608 2.91092 0.823608 5.31512V60.6845C0.823608 63.0888 2.79712 65.0558 5.2092 65.0558H43.2177C45.6297 65.0558 47.6032 63.0888 47.6032 60.6845V18.4289L30.0609 0.943848Z" fill="white"/>
</mask>
<g mask="url(#mask0_75_280)">
<path d="M30.0609 0.943848H5.2092C2.79712 0.943848 0.823608 2.91092 0.823608 5.31512V60.6845C0.823608 63.0888 2.79712 65.0558 5.2092 65.0558H43.2177C45.6297 65.0558 47.6032 63.0888 47.6032 60.6845V18.4289L37.3702 11.1434L30.0609 0.943848Z" fill="#0F9D58"/>
</g>
<mask id="mask1_75_280" style="mask-type:alpha" maskUnits="userSpaceOnUse" x="0" y="0" width="48" height="66">
<path d="M30.0609 0.943848H5.2092C2.79712 0.943848 0.823608 2.91092 0.823608 5.31512V60.6845C0.823608 63.0888 2.79712 65.0558 5.2092 65.0558H43.2177C45.6297 65.0558 47.6032 63.0888 47.6032 60.6845V18.4289L30.0609 0.943848Z" fill="white"/>
</mask>
<g mask="url(#mask1_75_280)">
<path d="M12.5184 32.2715V53.3993H35.9083V32.2715H12.5184ZM22.7515 50.4851H15.4422V46.8424H22.7515V50.4851ZM22.7515 44.6567H15.4422V41.014H22.7515V44.6567ZM22.7515 38.8284H15.4422V35.1856H22.7515V38.8284ZM32.9845 50.4851H25.6752V46.8424H32.9845V50.4851ZM32.9845 44.6567H25.6752V41.014H32.9845V44.6567ZM32.9845 38.8284H25.6752V35.1856H32.9845V38.8284Z" fill="#F1F1F1"/>
</g>
<mask id="mask2_75_280" style="mask-type:alpha" maskUnits="userSpaceOnUse" x="0" y="0" width="48" height="66">
<path d="M30.0609 0.943848H5.2092C2.79712 0.943848 0.823608 2.91092 0.823608 5.31512V60.6845C0.823608 63.0888 2.79712 65.0558 5.2092 65.0558H43.2177C45.6297 65.0558 47.6032 63.0888 47.6032 60.6845V18.4289L30.0609 0.943848Z" fill="white"/>
</mask>
<g mask="url(#mask2_75_280)">
<path d="M31.3436 17.1504L47.6032 33.3533V18.429L31.3436 17.1504Z" fill="url(#paint0_linear_75_280)"/>
</g>
<mask id="mask3_75_280" style="mask-type:alpha" maskUnits="userSpaceOnUse" x="0" y="0" width="48" height="66">
<path d="M30.0609 0.943848H5.2092C2.79712 0.943848 0.823608 2.91092 0.823608 5.31512V60.6845C0.823608 63.0888 2.79712 65.0558 5.2092 65.0558H43.2177C45.6297 65.0558 47.6032 63.0888 47.6032 60.6845V18.4289L30.0609 0.943848Z" fill="white"/>
</mask>
<g mask="url(#mask3_75_280)">
<path d="M30.0609 0.943848V14.0577C30.0609 16.4728 32.0234 18.4289 34.4465 18.4289H47.6032L30.0609 0.943848Z" fill="#87CEAC"/>
</g>
<mask id="mask4_75_280" style="mask-type:alpha" maskUnits="userSpaceOnUse" x="0" y="0" width="48" height="66">
<path d="M30.0609 0.943848H5.2092C2.79712 0.943848 0.823608 2.91092 0.823608 5.31512V60.6845C0.823608 63.0888 2.79712 65.0558 5.2092 65.0558H43.2177C45.6297 65.0558 47.6032 63.0888 47.6032 60.6845V18.4289L30.0609 0.943848Z" fill="white"/>
</mask>
<g mask="url(#mask4_75_280)">
<path d="M5.2092 0.943848C2.79712 0.943848 0.823608 2.91092 0.823608 5.31512V5.67939C0.823608 3.27519 2.79712 1.30812 5.2092 1.30812H30.0609V0.943848H5.2092Z" fill="white" fill-opacity="0.2"/>
</g>
<mask id="mask5_75_280" style="mask-type:alpha" maskUnits="userSpaceOnUse" x="0" y="0" width="48" height="66">
<path d="M30.0609 0.943848H5.2092C2.79712 0.943848 0.823608 2.91092 0.823608 5.31512V60.6845C0.823608 63.0888 2.79712 65.0558 5.2092 65.0558H43.2177C45.6297 65.0558 47.6032 63.0888 47.6032 60.6845V18.4289L30.0609 0.943848Z" fill="white"/>
</mask>
<g mask="url(#mask5_75_280)">
<path d="M43.2177 64.6916H5.2092C2.79712 64.6916 0.823608 62.7245 0.823608 60.3203V60.6846C0.823608 63.0888 2.79712 65.0559 5.2092 65.0559H43.2177C45.6297 65.0559 47.6032 63.0888 47.6032 60.6846V60.3203C47.6032 62.7245 45.6297 64.6916 43.2177 64.6916Z" fill="#263238" fill-opacity="0.2"/>
</g>
<mask id="mask6_75_280" style="mask-type:alpha" maskUnits="userSpaceOnUse" x="0" y="0" width="48" height="66">
<path d="M30.0609 0.943848H5.2092C2.79712 0.943848 0.823608 2.91092 0.823608 5.31512V60.6845C0.823608 63.0888 2.79712 65.0558 5.2092 65.0558H43.2177C45.6297 65.0558 47.6032 63.0888 47.6032 60.6845V18.4289L30.0609 0.943848Z" fill="white"/>
</mask>
<g mask="url(#mask6_75_280)">
<path d="M34.4465 18.4289C32.0234 18.4289 30.0609 16.4727 30.0609 14.0576V14.4219C30.0609 16.837 32.0234 18.7931 34.4465 18.7931H47.6032V18.4289H34.4465Z" fill="#263238" fill-opacity="0.1"/>
</g>
<path d="M30.0609 0.943848H5.2092C2.79712 0.943848 0.823608 2.91092 0.823608 5.31512V60.6845C0.823608 63.0888 2.79712 65.0558 5.2092 65.0558H43.2177C45.6297 65.0558 47.6032 63.0888 47.6032 60.6845V18.4289L30.0609 0.943848Z" fill="url(#paint1_radial_75_280)"/>
<defs>
<linearGradient id="paint0_linear_75_280" x1="39.4743" y1="18.5416" x2="39.4743" y2="33.3555" gradientUnits="userSpaceOnUse">
<stop stop-color="#263238" stop-opacity="0.2"/>
<stop offset="1" stop-color="#263238" stop-opacity="0.02"/>
</linearGradient>
<radialGradient id="paint1_radial_75_280" cx="0" cy="0" r="1" gradientUnits="userSpaceOnUse" gradientTransform="translate(2.30561 2.21821) scale(75.4315 75.1852)">
<stop stop-color="white" stop-opacity="0.1"/>
<stop offset="1" stop-color="white" stop-opacity="0"/>
</radialGradient>
</defs>
</svg>
