<svg width="183" height="52" viewBox="0 0 183 52" fill="none" xmlns="http://www.w3.org/2000/svg">
<g clipPath="url(#clip0_75_350)">
<path d="M19.8191 29.4298H6.38127V43.6195H0V8.60742H6.38127V23.2759H19.8191V8.60742H26.199V43.6195H19.8191V29.4298Z" fill="#213343"/>
<path d="M46.6169 32.3031C46.6169 35.2191 44.2472 37.5918 41.3388 37.5918C38.4297 37.5918 36.0616 35.2191 36.0616 32.3031V17.3071H30.019V32.3031C30.019 38.5595 35.0972 43.6486 41.3388 43.6486C47.5792 43.6486 52.6574 38.5595 52.6574 32.3031V17.3071H46.6169V32.3031Z" fill="#213343"/>
<path d="M91.4544 18.8509C91.4544 15.7763 93.4846 14.8013 95.7072 14.8013C97.4969 14.8013 99.8652 16.1667 101.41 17.8258L105.373 13.1434C103.393 10.4615 99.3815 8.60742 96.0945 8.60742C89.5197 8.60742 84.7826 12.461 84.7826 18.8509C84.7826 30.7028 99.2364 26.946 99.2364 33.581C99.2364 35.6272 97.2552 37.4335 94.9841 37.4335C91.4059 37.4335 90.2453 35.6776 88.6024 33.8239L84.2029 38.4079C87.008 41.8711 90.4874 43.6281 94.6447 43.6281C100.88 43.6281 105.908 39.7259 105.908 33.6281C105.908 20.4594 91.4544 24.557 91.4544 18.8509Z" fill="#213343"/>
<path d="M180.871 38.0264C177.296 38.0264 176.281 36.4767 176.281 34.1015V23.5876H181.838V18.2582H176.281V11.2314L170.144 13.993V35.4101C170.144 40.886 173.912 43.6484 179.083 43.6484C179.856 43.6484 180.921 43.5984 181.501 43.4547L183 37.9313C182.323 37.9781 181.55 38.0264 180.871 38.0264Z" fill="#213343"/>
<path d="M69.6494 17.4822C66.6522 17.4822 64.5601 18.3543 62.5397 20.3423V8.81641H56.4778V30.1773C56.4778 38.1725 62.2444 43.6483 68.7237 43.6483C75.9263 43.6483 82.2371 38.0751 82.2371 30.5658C82.2371 23.1516 76.4178 17.4822 69.6494 17.4822ZM69.6118 37.5328C65.8143 37.5328 62.7363 34.4472 62.7363 30.6409C62.7363 26.8347 65.8143 23.749 69.6118 23.749C73.4087 23.749 76.487 26.8347 76.487 30.6409C76.487 34.4472 73.4087 37.5328 69.6118 37.5328Z" fill="#213343"/>
<path d="M135.461 30.2505C135.461 22.7412 129.15 17.168 121.947 17.168C115.468 17.168 109.701 22.6438 109.701 30.639V51.9999H115.763V40.474C117.784 42.462 119.876 43.334 122.873 43.334C129.641 43.334 135.461 37.6646 135.461 30.2505ZM129.711 30.1754C129.711 33.9816 126.632 37.0673 122.835 37.0673C119.038 37.0673 115.96 33.9816 115.96 30.1754C115.96 26.3691 119.038 23.2835 122.835 23.2835C126.632 23.2835 129.711 26.3691 129.711 30.1754Z" fill="#213343"/>
<path d="M155.048 16.8738V10.77C156.638 10.0174 157.751 8.40561 157.751 6.53501V6.39397C157.751 3.81262 155.644 1.70053 153.069 1.70053H152.928C150.353 1.70053 148.246 3.81262 148.246 6.39397V6.53501C148.246 8.40561 149.36 10.0176 150.949 10.7702V16.8739C148.583 17.2403 146.421 18.2187 144.637 19.6585L127.918 6.62188C128.028 6.19733 128.105 5.75993 128.106 5.30092C128.11 2.37705 125.748 0.00378506 122.831 4.22965e-06C119.914 -0.00365202 117.547 2.3636 117.543 5.28747C117.539 8.21134 119.901 10.5846 122.818 10.5883C123.769 10.5894 124.648 10.3188 125.42 9.87917L141.865 22.7036C140.467 24.8198 139.648 27.3547 139.648 30.0835C139.648 32.9406 140.548 35.5829 142.07 37.7566L137.068 42.7702C136.673 42.6513 136.262 42.5681 135.828 42.5681C133.431 42.5681 131.488 44.5159 131.488 46.9185C131.488 49.3212 133.431 51.269 135.828 51.269C138.225 51.269 140.168 49.3212 140.168 46.9185C140.168 46.4835 140.085 46.0719 139.966 45.6756L144.914 40.7165C147.159 42.435 149.956 43.4671 152.999 43.4671C160.373 43.4671 166.35 37.475 166.35 30.0835C166.35 23.3924 161.446 17.8644 155.048 16.8738ZM152.999 36.9451C149.219 36.9451 146.154 33.8731 146.154 30.0835C146.154 26.294 149.219 23.2219 152.999 23.2219C156.779 23.2219 159.844 26.294 159.844 30.0835C159.844 33.8731 156.779 36.9451 152.999 36.9451Z" fill="#FF5C35"/>
</g>
<defs>
<clipPath id="clip0_75_350">
<rect width="183" height="52" fill="white"/>
</clipPath>
</defs>
</svg>
