<svg width="204" height="66" viewBox="0 0 204 66" fill="none" xmlns="http://www.w3.org/2000/svg">
<path d="M12.7315 34.0783C12.2951 34.0564 11.8576 34.086 11.4281 34.1663C10.7116 34.2816 10.0253 34.538 9.40909 34.9205C8.79293 35.3031 8.25924 35.8041 7.83913 36.3945C7.41902 36.9849 7.12089 37.6527 6.9621 38.3592C6.80332 39.0656 6.78706 39.7965 6.91426 40.5093C7.22653 43.4489 10.3682 45.9277 13.2766 46.0015C13.5751 46.009 13.8737 45.9893 14.1685 45.9424C17.3158 45.4342 18.1398 42.199 17.621 39.0212C17.035 35.4332 14.4715 34.1684 12.7315 34.0783ZM15.8153 42.5791C15.6824 42.7775 15.498 42.9361 15.2818 43.0381C15.0655 43.1401 14.8255 43.1815 14.5875 43.158C14.1691 43.1249 13.7789 42.9345 13.496 42.6252C13.2131 42.3159 13.0586 41.9109 13.0638 41.4922C13.0565 40.9343 13.1643 40.3809 13.3806 39.8663C13.5156 39.5394 13.5286 39.1751 13.4171 38.8394C13.3057 38.5038 13.0773 38.2192 12.7733 38.0373C12.3999 37.8064 11.9518 37.7272 11.5215 37.8162C11.1048 37.8961 10.7366 38.1369 10.497 38.4862C10.3353 38.747 10.209 39.0281 10.1216 39.3221C10.1045 39.3736 10.091 39.4139 10.0807 39.4402C9.93813 39.803 9.71057 39.9091 9.5567 39.8894C9.50004 39.879 9.44756 39.8526 9.40552 39.8133C9.36348 39.774 9.33366 39.7235 9.31962 39.6678C9.23981 39.1835 9.27721 38.6872 9.4287 38.2203C9.58019 37.7533 9.84138 37.3293 10.1905 36.9835C10.4946 36.6808 10.8639 36.4513 11.2703 36.3125C11.6767 36.1738 12.1095 36.1294 12.5358 36.1827C12.9833 36.2364 13.4111 36.3979 13.7821 36.6533C14.1531 36.9088 14.4562 37.2505 14.6652 37.649C14.8663 38.1285 14.9476 38.6496 14.9023 39.1674C14.8569 39.6853 14.6861 40.1843 14.4046 40.6218C14.369 40.6975 14.3364 40.7667 14.3086 40.8287C14.2073 41 14.1515 41.1943 14.1462 41.3931C14.1409 41.592 14.1865 41.7889 14.2785 41.9653C14.3595 42.073 14.4652 42.1596 14.5868 42.2179C14.7083 42.2763 14.8422 42.3046 14.977 42.3006C15.1057 42.299 15.2338 42.2819 15.3584 42.2498C15.5201 42.2142 15.6872 42.1775 15.789 42.2982C15.8227 42.3362 15.8435 42.3839 15.8482 42.4344C15.8529 42.4849 15.8414 42.5355 15.8153 42.5791Z" fill="white"/>
<path d="M52.9497 48.6073C53.6063 46.9451 53.9859 45.187 54.0735 43.4026C54.0735 41.2086 52.8283 40.2993 52.0353 40.2993C52.0111 40.2146 51.8543 39.6425 51.6383 38.9538C51.5148 38.5545 51.3682 38.1626 51.1993 37.7801C51.8482 36.8859 52.1228 35.7748 51.9651 34.6822C51.8352 33.8397 51.4336 33.0623 50.8211 32.468C49.6586 31.4835 48.2714 30.7991 46.7815 30.4749C46.557 30.4124 45.8172 30.21 45.7522 30.1902C45.7471 30.148 45.6982 27.7734 45.6536 26.754C45.6344 25.7317 45.4816 24.7163 45.1993 23.7335C44.8483 22.323 44.1228 21.033 43.0991 19.999C45.6622 17.3523 47.2624 14.4369 47.2585 11.9358C47.2512 7.12585 41.321 5.67031 34.0132 8.68473C34.0052 8.68812 32.4757 9.33403 32.4648 9.33959C32.458 9.33282 29.6655 6.60381 29.6235 6.5671C21.2917 -0.672033 -4.75925 28.1718 3.56976 35.1771L5.38998 36.7131C4.8988 38.026 4.72538 39.4361 4.88384 40.8286C5.13057 42.8543 6.13439 44.7127 7.69477 46.0323C9.20935 47.4036 11.1661 48.1884 13.2107 48.2446C16.4519 55.6848 23.8573 60.2489 32.5405 60.5059C41.8549 60.7814 49.6736 56.4279 52.9497 48.6073ZM54.8615 39.8023C55.6595 40.8296 56.07 42.1039 56.0214 43.4026C55.9376 45.4282 55.513 47.4253 54.7653 49.3104L54.7477 49.3546C53.0575 53.409 50.1066 56.8146 46.3297 59.0697C42.3986 61.3505 37.9197 62.5221 33.3724 62.4589C33.0781 62.4589 32.7783 62.4543 32.4828 62.4456C27.9949 62.3521 23.6138 61.062 19.7944 58.7094C16.4324 56.6077 13.7117 53.6275 11.9276 50.0923C9.87225 49.7739 7.95337 48.8682 6.40299 47.485C4.47539 45.8422 3.24059 43.5341 2.94556 41.0222C2.81409 39.8018 2.88502 38.568 3.1555 37.3706L2.31047 36.6578C1.62648 36.0685 1.07063 35.3458 0.677125 34.5341C0.283623 33.7225 0.0607975 32.8391 0.0223652 31.9384C-0.0469669 30.0686 0.276971 28.2051 0.973325 26.4678C2.70796 21.7435 6.69844 16.1182 11.6486 11.4195C13.8576 9.28117 16.3081 7.40596 18.9508 5.83158C21.155 4.42525 23.6864 3.61188 26.2991 3.47057C27.9841 3.42673 29.6253 4.00916 30.904 5.10476C30.977 5.16828 32.071 6.23556 32.9007 7.04637C33.1089 6.95872 33.2587 6.89567 33.2631 6.89401C35.7178 5.82741 38.3558 5.24341 41.0324 5.17406C45.9918 5.17406 49.2002 7.82702 49.2065 11.9329C49.2104 14.4663 47.9635 17.3064 45.6648 20.0557C46.2902 21.0204 46.7633 22.0751 47.0676 23.1831C47.3941 24.3174 47.5729 25.4889 47.5996 26.6687C47.6219 27.1762 47.6447 27.9907 47.6631 28.7095C49.3591 29.1377 50.9263 29.968 52.2317 31.1297C53.1168 32.0056 53.6972 33.1414 53.8878 34.3704C54.0795 35.5835 53.8916 36.8261 53.3497 37.9289C53.398 38.067 53.4481 38.2169 53.4981 38.3758C53.5415 38.5144 53.5824 38.648 53.6207 38.7747C54.0981 39.0325 54.5197 39.3817 54.8615 39.8023Z" fill="white"/>
<path d="M48.9572 37.4004C49.2731 37.1042 49.5194 36.7421 49.6787 36.3399C49.8379 35.9376 49.9061 35.5053 49.8783 35.0737C49.8151 34.6388 49.6116 34.2361 49.2987 33.9268C48.3806 33.1665 47.2882 32.6447 46.1188 32.4078C45.5847 32.2566 45.2223 32.1598 44.8319 32.0302C44.1376 31.7997 43.7945 31.6141 43.7168 30.2975C43.6828 29.7217 43.5832 27.7157 43.5474 26.8868C43.4841 25.4343 43.3107 23.449 42.0894 22.6293C41.7788 22.4238 41.4175 22.3073 41.045 22.2927C40.8365 22.2799 40.6273 22.3006 40.4253 22.3539C39.8054 22.4984 39.2413 22.82 38.8018 23.2794C38.2329 23.7976 37.5622 24.1921 36.8322 24.4379C36.1022 24.6837 35.329 24.7754 34.5616 24.7071C33.7068 24.6709 32.801 24.5367 31.7626 24.4746C31.5605 24.4627 31.3579 24.4501 31.1556 24.4394C29.8138 24.479 28.531 24.9983 27.5411 25.9027C26.5511 26.8072 25.9201 28.0364 25.763 29.3663C25.1685 33.4913 28.1304 35.623 28.9855 36.8738C29.1177 37.0335 29.1996 37.2286 29.2208 37.4346C29.1987 37.6631 29.0898 37.8744 28.9164 38.0254L28.9167 38.0266C27.7326 39.3563 26.9013 40.9607 26.4986 42.6933C26.0959 44.4259 26.1348 46.2316 26.6116 47.9454C26.7246 48.357 26.8695 48.7592 27.0449 49.1484C29.2061 54.242 35.9106 56.6142 42.4607 54.4568C43.3187 54.1741 44.1512 53.8194 44.9491 53.3964C46.3852 52.6803 47.6769 51.7068 48.7598 50.5243C50.4492 48.815 51.5588 46.6203 51.9324 44.249C52.1297 42.9363 51.8408 42.4282 51.4474 42.1838C51.1696 42.028 50.8477 41.9687 50.5324 42.0154C50.3657 40.9849 50.0731 39.9786 49.661 39.019L48.9572 37.4004Z" fill="white"/>
<path d="M38.2229 17.7277C38.3286 17.7519 38.3958 17.5698 38.3012 17.5169C36.7364 16.708 35.0105 16.2575 33.249 16.198C33.2321 16.1978 33.2156 16.1929 33.2013 16.1838C33.1869 16.1748 33.1754 16.162 33.1679 16.1468C33.1605 16.1316 33.1573 16.1147 33.1589 16.0979C33.1605 16.0811 33.1667 16.065 33.1768 16.0515C33.4506 15.6945 33.7702 15.3749 34.1275 15.1011C34.1435 15.0887 34.1551 15.0715 34.1606 15.0521C34.1662 15.0326 34.1653 15.0119 34.1582 14.993C34.151 14.9741 34.138 14.9579 34.121 14.9469C34.1041 14.9359 34.084 14.9306 34.0638 14.9318C31.907 15.1431 29.8337 15.8723 28.0209 17.057C28.0054 17.0674 27.9872 17.0729 27.9686 17.0728C27.9499 17.0728 27.9317 17.0672 27.9163 17.0567C27.9009 17.0462 27.889 17.0314 27.8822 17.0141C27.8753 16.9968 27.8738 16.9778 27.8779 16.9596C28.0239 16.4164 28.2388 15.8941 28.5174 15.4051C28.5265 15.3883 28.5301 15.369 28.5274 15.3501C28.5248 15.3312 28.5161 15.3136 28.5027 15.2999C28.4893 15.2863 28.4719 15.2773 28.4529 15.2742C28.434 15.2712 28.4146 15.2743 28.3976 15.2832C25.7799 16.7174 23.4469 18.6165 21.5133 20.887C21.4982 20.9043 21.49 20.9265 21.4902 20.9495C21.4905 20.9724 21.4992 20.9945 21.5146 21.0114C21.5301 21.0284 21.5513 21.0391 21.5742 21.0415C21.597 21.0439 21.62 21.0378 21.6386 21.0244C23.8793 19.4625 26.4037 18.351 29.0705 17.7521C32.0809 17.0594 35.2089 17.0511 38.2229 17.7277Z" fill="white"/>
<path d="M30.5133 10.3597C30.5133 10.3597 28.2456 7.74081 27.5611 7.54764C23.3496 6.41397 14.2521 12.6637 8.44339 20.9208C6.09303 24.2617 2.72846 30.1781 4.3373 33.221C4.90913 33.9042 5.55376 34.5234 6.25981 35.0675C7.33775 33.5603 8.96008 32.5293 10.785 32.1917C13.0753 25.8044 17.0957 20.1753 22.3995 15.9298C24.9446 13.8519 27.6586 11.9888 30.5133 10.3597Z" fill="white"/>
<path d="M15.6628 42.4655C15.6955 42.505 15.7154 42.5534 15.72 42.6044C15.7245 42.6553 15.7135 42.7065 15.6884 42.7511C15.5661 42.949 15.3909 43.1089 15.1824 43.2128C14.974 43.3167 14.7405 43.3604 14.5085 43.339C14.095 43.2946 13.7137 43.0952 13.4419 42.7812C13.1701 42.4671 13.0279 42.0618 13.0441 41.6472C13.0371 41.0822 13.1405 40.5212 13.3486 39.9957C13.4799 39.6664 13.4936 39.302 13.3874 38.9638C13.2811 38.6256 13.0615 38.3341 12.7652 38.1385C12.5899 38.0227 12.3931 37.9432 12.1865 37.9046C11.9799 37.866 11.7676 37.8691 11.5622 37.9137C11.3609 37.956 11.1702 38.0379 11.0012 38.1548C10.8321 38.2716 10.6882 38.421 10.5779 38.5942C10.4219 38.8606 10.3006 39.1459 10.2169 39.443C10.2008 39.4953 10.1878 39.5364 10.1779 39.5629C10.0408 39.9317 9.82227 40.0392 9.6742 40.0195C9.6042 40.0098 9.50795 39.9631 9.44625 39.7943C9.36881 39.3063 9.40395 38.8071 9.54901 38.3346C9.69406 37.8622 9.9452 37.4289 10.2833 37.0679C10.5673 36.7637 10.9198 36.5313 11.3117 36.39C11.7035 36.2486 12.1235 36.2023 12.5368 36.255C12.9747 36.315 13.3908 36.4824 13.7479 36.7423C14.105 37.0021 14.3919 37.3462 14.583 37.7438C14.7765 38.2325 14.8545 38.759 14.8112 39.2826C14.7678 39.8062 14.6041 40.3129 14.3328 40.7632C14.2985 40.8397 14.2671 40.91 14.2406 40.9735C14.143 41.1494 14.0895 41.3462 14.0844 41.5472C14.0794 41.7481 14.123 41.9473 14.2116 42.1279C14.2866 42.2355 14.3871 42.323 14.5042 42.3824C14.6213 42.4418 14.7514 42.4712 14.8827 42.4682C15.0065 42.4664 15.1296 42.4491 15.2491 42.4166C15.4046 42.3802 15.5652 42.343 15.6628 42.4655ZM53.9897 43.42C53.9028 45.2004 53.5257 46.9547 52.8733 48.614C49.6185 56.418 41.851 60.7626 32.5977 60.4876C23.9715 60.2312 16.6143 55.6765 13.3943 48.252C11.3615 48.1953 9.41689 47.4118 7.91479 46.0444C6.36308 44.7248 5.36611 42.8709 5.12216 40.8515C4.96471 39.4621 5.13695 38.0553 5.62499 36.7447L3.81664 35.2118C-4.45773 28.2212 21.4223 -0.561968 29.6999 6.66212C29.7416 6.69848 32.5156 9.42202 32.5225 9.42873C32.5335 9.42312 34.0531 8.77838 34.0608 8.77524C41.3208 5.76708 47.2121 7.21953 47.2195 12.0191C47.2233 14.5152 45.6337 17.4246 43.0874 20.0655C44.1051 21.0987 44.8256 22.3858 45.1735 23.7921C45.4543 24.7731 45.606 25.7864 45.6249 26.8065C45.6691 27.8237 45.7181 30.1934 45.723 30.2356C45.7876 30.2551 46.5226 30.4569 46.7454 30.5196C48.2266 30.8437 49.605 31.5268 50.7587 32.5086C51.3678 33.1026 51.7666 33.878 51.8951 34.718C52.0521 35.8078 51.7795 36.9159 51.1345 37.8094C51.3023 38.1912 51.448 38.5823 51.5707 38.9808C51.785 39.6682 51.9409 40.2386 51.9649 40.3233C52.7526 40.3232 53.9897 41.2306 53.9897 43.42ZM17.4231 39.1377C16.8604 35.4936 14.3967 34.2093 12.725 34.1177C12.3054 34.0954 11.8847 34.1254 11.4724 34.2068C8.4887 34.8091 6.80354 37.3487 7.13513 40.6487C7.37663 42.129 8.11143 43.4847 9.22078 44.4969C10.3301 45.5091 11.7492 46.1186 13.2487 46.2268C13.5357 46.2345 13.8227 46.2143 14.1058 46.1667C17.1299 45.6506 17.9217 42.365 17.4231 39.1377ZM22.523 16.0047C25.0505 13.9319 27.7467 12.0727 30.5836 10.4463C30.5836 10.4463 28.331 7.83303 27.6508 7.64045C23.4669 6.50879 14.4288 12.7455 8.65832 20.9852C6.3234 24.3191 2.9809 30.2232 4.57901 33.2597C5.14674 33.9412 5.78717 34.559 6.48898 35.1023C7.55742 33.6 9.16958 32.5709 10.9847 32.2326C13.2556 25.8646 17.2491 20.2479 22.523 16.0047ZM31.6163 44.8424C31.7272 45.3268 31.9672 45.7722 32.3109 46.1317C32.6546 46.4912 33.0892 46.7514 33.5689 46.8848C34.0679 47.0704 34.5828 47.2103 35.1072 47.3029C41.7254 48.4419 47.9125 44.6557 49.3056 43.702C49.4102 43.6304 49.4792 43.7002 49.3953 43.8266C49.3534 43.8939 49.3079 43.9589 49.2589 44.0213C47.554 46.2217 42.9706 48.7699 37.0073 48.769C34.4066 48.7685 31.8071 47.8517 30.8527 46.4431C29.3719 44.2572 30.7793 41.0668 33.2467 41.3992C33.2496 41.3997 34.0909 41.4951 34.3274 41.5213C38.1628 41.8893 42.0288 41.2703 45.5561 39.7234C48.9223 38.1598 50.194 36.4391 50.0033 35.0462C49.9395 34.6136 49.7356 34.2137 49.4228 33.9074C48.5023 33.1515 47.4092 32.6334 46.2403 32.399C45.7057 32.2488 45.3429 32.153 44.952 32.0241C44.2572 31.7951 43.9137 31.6108 43.8358 30.3034C43.802 29.7316 43.7023 27.7397 43.6662 26.9165C43.6027 25.4742 43.4295 23.5027 42.2068 22.6887C41.8955 22.4843 41.5341 22.3687 41.1617 22.3544C40.9529 22.3417 40.7434 22.3623 40.5411 22.4153C39.9218 22.5582 39.3573 22.8775 38.9163 23.3343C38.3449 23.8495 37.6729 24.2414 36.9425 24.4854C36.2121 24.7293 35.4391 24.8201 34.6719 24.752C33.8164 24.7163 32.9098 24.5829 31.8705 24.5212C31.6684 24.5093 31.4653 24.4967 31.2627 24.4864C29.9247 24.5214 28.6437 25.0346 27.653 25.9326C26.6623 26.8305 26.0278 28.0535 25.8651 29.3789C25.2701 33.4752 28.2348 35.5919 29.0907 36.834C29.223 36.9922 29.305 37.1861 29.3263 37.391C29.3037 37.6182 29.1947 37.8281 29.0216 37.9775V37.9789C27.8377 39.2946 27.0056 40.887 26.6024 42.6086C26.1991 44.3303 26.2377 46.1256 26.7145 47.8284C26.8277 48.2373 26.9727 48.6367 27.1482 49.0231C29.3115 54.0813 36.0223 56.4367 42.5785 54.2941C43.437 54.0138 44.2702 53.6617 45.0694 53.2417C46.5051 52.5318 47.7979 51.565 48.8837 50.3894C50.5722 48.6965 51.6833 46.5162 52.0593 44.1578C52.2567 42.8539 51.9678 42.3497 51.5738 42.107C51.2953 41.9522 50.9734 41.8933 50.6579 41.9396C50.491 40.9157 50.1981 39.9163 49.7858 38.964C47.9134 40.3734 45.7967 41.4268 43.5417 42.0713C40.8286 42.836 38.0061 43.1414 35.1918 42.9747C33.3812 42.8284 32.1833 42.2995 31.7328 43.7645C34.4716 44.6781 37.3795 44.9741 40.2468 44.6311C40.2669 44.629 40.2873 44.6309 40.3068 44.6367C40.3262 44.6426 40.3443 44.6522 40.36 44.665C40.3757 44.6778 40.3887 44.6935 40.3982 44.7114C40.4078 44.7292 40.4137 44.7488 40.4157 44.7689C40.4188 44.8027 40.4112 44.8367 40.3941 44.866C40.3769 44.8954 40.3511 44.9187 40.3201 44.9328C40.3201 44.9328 36.9572 46.4951 31.6163 44.8424ZM21.7672 21.0885C23.9915 19.5307 26.4996 18.4215 29.1504 17.8233C32.1407 17.132 35.249 17.1237 38.243 17.7988C38.3478 17.8228 38.4146 17.6412 38.3209 17.5887C36.7672 16.7817 35.0521 16.3319 33.3015 16.2723C33.2846 16.272 33.2682 16.2671 33.2539 16.258C33.2397 16.249 33.2283 16.2362 33.2208 16.2211C33.2134 16.206 33.2103 16.1892 33.2119 16.1724C33.2134 16.1557 33.2196 16.1397 33.2297 16.1262C33.5016 15.7701 33.8193 15.4512 34.1745 15.1777C34.1904 15.1653 34.2019 15.1482 34.2074 15.1288C34.2129 15.1094 34.212 15.0888 34.2049 15.0699C34.1978 15.0511 34.1849 15.035 34.168 15.024C34.1511 15.0129 34.1311 15.0076 34.111 15.0087C31.9672 15.2201 29.907 15.9479 28.1076 17.1295C28.0922 17.1399 28.074 17.1454 28.0555 17.1453C28.0369 17.1453 28.0188 17.1397 28.0035 17.1292C27.9881 17.1188 27.9763 17.1039 27.9696 17.0867C27.9628 17.0694 27.9614 17.0506 27.9656 17.0325C28.1105 16.4906 28.3239 15.9694 28.6007 15.4813C28.6099 15.4646 28.6135 15.4454 28.6109 15.4265C28.6083 15.4077 28.5998 15.3901 28.5864 15.3765C28.5731 15.3628 28.5558 15.3538 28.5369 15.3507C28.5181 15.3476 28.4988 15.3507 28.4818 15.3594C25.8795 16.7922 23.5617 18.6875 21.6426 20.9519C21.6276 20.969 21.6194 20.9911 21.6197 21.0139C21.6199 21.0367 21.6285 21.0587 21.6439 21.0755C21.6593 21.0924 21.6803 21.103 21.7031 21.1054C21.7258 21.1078 21.7486 21.1018 21.7672 21.0885ZM39.1953 34.9931C39.3764 35.1075 39.5934 35.1514 39.8049 35.1163C40.0164 35.0813 40.2075 34.9698 40.3418 34.8031C40.5088 34.4808 40.2664 34.0436 39.8002 33.8265C39.6191 33.7121 39.402 33.6683 39.1905 33.7034C38.979 33.7386 38.7879 33.8502 38.6537 34.017C38.4865 34.3391 38.7291 34.7762 39.1953 34.9931ZM40.6251 29.7666C40.7369 30.3469 40.9782 30.8947 41.331 31.3693C41.6956 31.3246 42.0643 31.3246 42.4288 31.3693C42.642 30.7323 42.6607 30.0465 42.4825 29.399C42.219 28.2042 41.8624 27.481 41.1256 27.5934C40.389 27.7061 40.3618 28.5718 40.6251 29.7666ZM42.1925 32.5113C42.0067 32.4581 41.8089 32.4643 41.6268 32.5291C41.4447 32.5939 41.2875 32.7139 41.1773 32.8724C41.0672 33.0308 41.0095 33.2197 41.0125 33.4126C41.0155 33.6054 41.079 33.7924 41.194 33.9474C41.3091 34.1024 41.4699 34.2175 41.6539 34.2766C41.8379 34.3357 42.0359 34.3358 42.22 34.2769C42.404 34.218 42.565 34.103 42.6802 33.9482C42.7954 33.7933 42.8591 33.6063 42.8623 33.4135C42.889 33.206 42.8342 32.9962 42.7094 32.828C42.5845 32.6598 42.3993 32.5464 42.1925 32.5113Z" fill="black"/>
<path d="M29.96 32.4049C29.8424 32.3884 29.7924 32.3382 29.7776 32.2718C29.7319 32.0656 30.0497 31.7264 30.3847 31.4815C30.8736 31.125 31.4463 30.8999 32.0476 30.8278C32.6489 30.7558 33.2587 30.8393 33.8183 31.0704C34.3412 31.2855 34.7909 31.6465 35.1133 32.1101C35.2331 32.305 35.2563 32.4561 35.1788 32.5353C35.0582 32.6623 34.7506 32.5169 34.2497 32.2977C33.6481 32.0032 32.9832 31.8604 32.3134 31.8817C31.5197 32.012 30.734 32.1866 29.96 32.4049ZM34.9519 33.4301C34.7355 33.2031 34.4661 33.0333 34.1677 32.9357C33.8693 32.8382 33.5514 32.8159 33.2423 32.8711C32.7865 32.9194 32.3546 33.0989 31.9993 33.3878C31.8337 33.5064 31.7199 33.6837 31.6813 33.8833C31.6804 33.9055 31.6844 33.9276 31.693 33.9481C31.7016 33.9686 31.7146 33.9869 31.7311 34.0019C31.7605 34.0285 31.7989 34.043 31.8385 34.0426C32.0025 34.0186 32.1628 33.9742 32.3158 33.9106C32.9854 33.6588 33.7088 33.5839 34.416 33.693C34.7437 33.7297 34.8985 33.7502 34.9704 33.638C34.9889 33.6055 34.997 33.5683 34.9937 33.5311C34.9904 33.494 34.9758 33.4587 34.9519 33.4301Z" fill="black"/>
<path d="M34.0238 33.7296C34.2306 32.9954 34.2425 32.2202 34.0582 31.4801C33.7916 30.2834 33.3885 29.5996 32.6414 29.7122C31.8943 29.8249 31.8749 30.7892 32.1157 31.9909C32.2265 32.5416 32.4421 33.066 32.751 33.5355C33.3455 34.3631 33.7497 34.1489 34.0238 33.7296Z" fill="black"/>
<path d="M81.8662 34.7871C77.7576 34.7871 77.6861 39.2619 76.7135 39.2619C76.5111 39.2619 76.3503 39.0837 76.3503 38.8382C76.3503 38.5115 76.4356 38.2284 76.4356 37.6997C76.4356 36.0939 75.3023 34.7871 72.9264 34.7871C70.9098 34.7871 69.433 35.795 68.5319 37.6581C68.0754 38.6026 68.1151 39.26 67.6526 39.26C67.4819 39.26 67.3489 39.0996 67.3489 38.8679C67.3489 38.1828 67.9543 37.5572 67.9543 36.086C67.9543 35.7039 67.9245 35.3811 67.863 35.1178H63.9568V50.2331H69.2603V42.032C69.2603 40.4163 69.955 39.3807 71.14 39.3807C71.926 39.3807 72.6247 40.0658 72.6247 41.3192V50.2331H77.9283V42.032C77.9283 40.2163 78.7698 39.3807 79.8079 39.3807C80.6773 39.3807 81.2926 40.1826 81.2926 41.3192V50.2331H86.5346V40.9529C86.5346 36.8978 84.9209 34.7852 81.8682 34.7852L81.8662 34.7871Z" fill="black"/>
<path d="M118.14 30.8862H112.898V50.2328H118.14V30.8862Z" fill="black"/>
<path d="M119.868 42.4952C119.868 47.6372 123.205 50.5973 127.536 50.5973C130.019 50.5973 131.917 49.6172 133.082 48.6629V43.6752C131.903 44.4791 130.089 45.3978 128.141 45.3978C125.712 45.3978 124.444 44.392 124.444 42.6476C124.444 40.9032 125.906 39.9271 128.05 39.9271C129.991 39.9271 131.772 40.6973 133.08 41.5903V36.2997C131.972 35.478 130.017 34.7573 127.534 34.7573C122.885 34.7573 119.866 37.656 119.866 42.4971L119.868 42.4952Z" fill="black"/>
<path d="M144.628 34.8166C142.496 34.8166 141.261 35.8026 140.354 37.6282C139.955 38.434 139.925 39.23 139.475 39.23C139.306 39.23 139.171 39.0736 139.171 38.838C139.171 38.0004 140.172 36.751 140.172 33.0643C140.172 32.1376 140.08 31.4229 139.9 30.918H135.324V50.2349H140.628V42.099C140.628 40.5744 141.432 39.4122 142.659 39.4122C143.572 39.4122 144.205 40.1527 144.205 41.3506V50.2349H149.508V40.7724C149.508 36.8243 147.781 34.8166 144.63 34.8166H144.628Z" fill="black"/>
<path d="M193.296 34.7573C190.952 34.7573 189.755 36.0899 189.087 37.3214C188.557 38.2956 188.479 39.2321 188.025 39.2321C187.802 39.2321 187.691 39.1014 187.691 38.8401C187.691 38.3768 188.297 37.5907 188.297 36.3017C188.297 35.777 188.255 35.385 188.176 35.1236H184.206V54.1079H189.539V48.1441C190.216 49.5855 191.633 50.5399 193.57 50.5399C197.064 50.5399 199.45 47.6649 199.45 42.6496C199.45 38.0223 197.238 34.7593 193.298 34.7593L193.296 34.7573ZM191.871 47.061C190.802 47.061 189.628 45.9542 189.628 43.1604C189.628 40.727 190.587 39.2915 191.871 39.2915C193.348 39.2915 194.174 40.7112 194.174 43.1604C194.174 45.8829 193.223 47.061 191.871 47.061Z" fill="black"/>
<path d="M96.0103 34.7574C93.2712 34.7574 90.7624 35.4325 89.0196 36.2978V40.6756C91.0482 39.5826 93.1283 38.7728 94.9524 38.7728C96.9055 38.7728 97.7332 39.8004 97.6161 41.1528C96.8281 41.0716 95.9528 41.0379 94.8909 41.0379C90.7425 41.0379 88.1423 42.6536 88.1423 46.1701C88.1423 49.0589 90.3971 50.5479 92.8643 50.5479C95.3315 50.5479 96.9273 49.3995 97.886 47.6689C98.4319 46.6829 98.3862 46.079 98.7415 46.079C98.9162 46.079 99.0373 46.2037 99.0373 46.3978C99.0373 47.0294 98.8566 47.3977 98.8566 48.253C98.8566 49.053 98.9618 49.7262 99.1286 50.2152H102.941V42.123C102.941 37.5274 100.834 34.7554 96.0103 34.7554V34.7574ZM94.224 46.8334C93.2395 46.8334 92.7115 46.4037 92.7115 45.6553C92.7115 44.6811 93.6305 43.9347 96.0103 43.9347C96.5343 43.9347 97.0087 43.9525 97.4394 43.9881C97.229 45.3801 96.0143 46.8334 94.224 46.8334Z" fill="black"/>
<path d="M114.918 20.8734V12.3931H111.268V20.4398C111.268 22.4336 109.93 23.7662 108.174 23.7662C106.417 23.7662 105.079 22.4317 105.079 20.4398V12.3931H101.435L101.455 20.8734C101.455 24.5661 104.418 27.2668 108.184 27.2668C111.949 27.2668 114.918 24.5721 114.918 20.8734Z" fill="black"/>
<path d="M129.015 26.9738H132.659V15.7987H137.008V12.3931H124.662V15.7987H129.015V26.9738Z" fill="black"/>
<path d="M122.306 12.3989H118.662V26.9796H122.306V12.3989Z" fill="black"/>
<path d="M91.0818 26.9738H94.7261V15.7987H99.0729V12.3931H86.7271V15.7987H91.0818V26.9738Z" fill="black"/>
<path d="M67.601 19.6913V12.3989H63.9568V26.9777H67.601V19.6913Z" fill="black"/>
<path d="M74.9868 18.9271C74.9868 16.9333 76.3246 15.6007 78.0812 15.6007C79.8378 15.6007 81.1756 16.9353 81.1756 18.9271V26.9739H84.8198L84.8099 18.4935C84.8079 14.7988 81.8405 12.1001 78.0752 12.1001C74.3099 12.1001 71.3406 14.7949 71.3406 18.4935V26.9739H74.9848V18.9271H74.9868Z" fill="black"/>
<path d="M177.326 34.7871C173.218 34.7871 173.146 39.2619 172.174 39.2619C171.971 39.2619 171.81 39.0837 171.81 38.8382C171.81 38.5115 171.896 38.2284 171.896 37.6997C171.896 36.0939 170.762 34.7871 168.386 34.7871C166.37 34.7871 164.893 35.795 163.992 37.6581C163.535 38.6026 163.575 39.26 163.113 39.26C162.942 39.26 162.809 39.0996 162.809 38.8679C162.809 38.1828 163.414 37.5572 163.414 36.086C163.414 35.7039 163.385 35.3811 163.323 35.1178H159.413V50.2331H164.716V42.032C164.716 40.4163 165.411 39.3807 166.596 39.3807C167.382 39.3807 168.081 40.0658 168.081 41.3192V50.2331H173.384V42.032C173.384 40.2163 174.226 39.3807 175.264 39.3807C176.133 39.3807 176.749 40.1826 176.749 41.3192V50.2331H181.991V40.9529C181.991 36.8978 180.377 34.7852 177.324 34.7852L177.326 34.7871Z" fill="black"/>
<path d="M154.385 36.177C153.274 36.177 152.394 36.0166 151.749 35.6938V50.235H156.991V35.6938C156.31 35.9928 155.501 36.177 154.385 36.177Z" fill="black"/>
<path d="M154.356 30.7974C152.188 30.7974 151.053 31.7537 151.053 32.8526C151.053 34.0366 152.396 34.9078 154.356 34.9078C156.315 34.9078 157.658 34.0366 157.658 32.8526C157.658 31.7537 156.521 30.7974 154.356 30.7974Z" fill="black"/>
<path d="M107.943 36.177C106.832 36.177 105.952 36.0166 105.307 35.6938V50.235H110.549V35.6938C109.869 35.9928 109.059 36.177 107.943 36.177Z" fill="black"/>
<path d="M107.914 30.7974C105.746 30.7974 104.611 31.7537 104.611 32.8526C104.611 34.0366 105.955 34.9078 107.914 34.9078C109.873 34.9078 111.216 34.0366 111.216 32.8526C111.216 31.7537 110.079 30.7974 107.914 30.7974Z" fill="black"/>
</svg>
