<svg width="103" height="120" viewBox="0 0 103 120" fill="none" xmlns="http://www.w3.org/2000/svg">
<path d="M-1 20C-5.42 20 -9 23.58 -9 28V44.1953H3.08594C6.38594 44.1953 7.64844 47.2891 7.64844 47.2891L10.4531 61.5391C7.13312 50.8431 -5.664 45.6567 -9 44.4688V92C-9 96.42 -5.42 100 -1 100H87C91.42 100 95 96.42 95 92V28C95 23.58 91.42 20 87 20H-1ZM56.4766 43.4844C60.3406 43.4844 64.2891 45.0312 64.2891 45.0312L62.9375 51.9688C62.9375 51.9688 59.8562 49.9453 57.1562 49.9453C53.0122 49.9453 51.5625 51.2972 51.5625 53.1172C51.5625 56.6812 63.1328 57.258 63.1328 65.25C63.1288 71.89 54.8352 76.5156 48.8672 76.5156C42.8912 76.5156 39.8047 74.6953 39.8047 74.6953L41.25 68.0391C41.25 68.0391 44.4338 69.8672 49.2578 69.8672C54.0738 69.8672 54.7422 67.8446 54.7422 66.9766C54.7422 61.8766 43.1875 63.2365 43.1875 53.3125C43.1875 47.8245 47.7126 43.4844 56.4766 43.4844ZM19.0859 44.1172H28.0078L15.3203 75.5312H6.13281L-0.554688 50.0938C-0.554688 50.0938 6.49194 53.6624 10.8359 63.3984C11.0239 64.5824 11.4609 66.4844 11.4609 66.4844L19.0859 44.1172ZM31.2969 44.1172H39.7344L34.6953 75.5312H26.3594L31.2969 44.1172ZM76.5937 44.1172H85.3594L91.8125 75.5312H84.2266L83.3281 71.0547H72.8984L71.1875 75.5312H62.9062L76.5937 44.1172ZM79.7422 53.1797L75.2109 65.0469H82.1172L79.7422 53.1797Z" fill="#004ECD"/>
</svg>
